<svg xmlns="http://www.w3.org/2000/svg" width="40" height="40" viewBox="0 0 40 40">
  <path id="Icon_awesome-arrow-circle-right" data-name="Icon awesome-arrow-circle-right" d="M20.563.563a20,20,0,1,1-20,20A20,20,0,0,1,20.563.563ZM18.232,12.143l6.089,5.839H9.595a1.931,1.931,0,0,0-1.935,1.935v1.29a1.931,1.931,0,0,0,1.935,1.935H24.321l-6.089,5.839a1.938,1.938,0,0,0-.032,2.766l.887.879a1.927,1.927,0,0,0,2.734,0l10.7-10.694a1.928,1.928,0,0,0,0-2.734L21.821,8.49a1.928,1.928,0,0,0-2.734,0l-.887.879a1.947,1.947,0,0,0,.032,2.774Z" transform="translate(-0.563 -0.563)" fill="#fff"/>
</svg>
