<svg xmlns="http://www.w3.org/2000/svg" xmlns:xlink="http://www.w3.org/1999/xlink" width="160.412" height="25.173" viewBox="0 0 160.412 25.173">
  <defs>
    <clipPath id="clip-path">
      <rect id="長方形_73" data-name="長方形 73" width="160.412" height="25.173" fill="none"/>
    </clipPath>
  </defs>
  <g id="logo修正版" transform="translate(0 0)">
    <g id="グループ_25" data-name="グループ 25" transform="translate(0 0)" clip-path="url(#clip-path)">
      <path id="パス_89" data-name="パス 89" d="M17.062,10.691H7.291c-2.479,0-3.792-.614-3.792-1.842V5.472c0-1.688.875-2.456,2.771-2.456H7.437q1.312,0,1.312-1.381C8.75.56,8.312.1,7.437.1H6.854C2.333.1,0,1.788,0,5.165V9.31c0,2.916,2.625,4.3,7.875,4.3H17.5c3.062,0,4.521.767,4.521,2.456V18.98c0,2-1.167,2.916-3.646,2.916H2.333q-1.312,0-1.312,1.381c0,1.074.437,1.535,1.312,1.535h15.6c5.1,0,7.583-1.688,7.583-4.912V15.6c0-3.223-2.771-4.912-8.458-4.912" transform="translate(0 0.054)"/>
      <path id="パス_90" data-name="パス 90" d="M77.8,21.95H61.029c-2.771,0-4.229-.767-4.229-2.3V1.535C56.8.46,56.217,0,55.05,0S53.3.46,53.3,1.535V19.648c0,3.53,2.625,5.219,7.875,5.219H77.653c.583.153,1.167-.307,1.312-1.074v-.307c.146-.921-.292-1.535-1.167-1.535" transform="translate(24.427 0)"/>
      <path id="パス_91" data-name="パス 91" d="M91.02,3.9H81.541C75.417,3.9,72.5,5.742,72.5,9.272V17.1c0,3.837,2.625,5.679,8.021,5.679h8.75c.729,0,1.167-.46,1.167-1.381S90,20.017,89.27,20.017H80.083c-2.917,0-4.229-.921-4.229-2.916V9.426c0-1.688,1.75-2.609,5.25-2.609H92.041c.875,0,1.312.307,1.312,1.074V21.552c0,1.074.583,1.535,1.6,1.535s1.6-.46,1.6-1.535V8.5c-.146-3.07-1.9-4.6-5.542-4.6" transform="translate(33.226 2.086)"/>
      <path id="パス_92" data-name="パス 92" d="M109.45,5.986h-9.187c-.729,0-1.167.46-1.167,1.381s.437,1.381,1.167,1.381h9.771q4.375,0,4.375,2.763v7.828c0,1.688-1.75,2.609-5.25,2.609h-7.291c-3.354,0-4.958-.921-4.958-2.763V1.535C96.908.46,96.325,0,95.3,0s-1.6.46-1.6,1.535V19.494c0,3.684,2.917,5.526,8.6,5.526h6.271c5.979,0,9.041-1.842,9.041-5.372V11.666c-.146-3.684-2.771-5.679-8.166-5.679" transform="translate(42.942 0)"/>
      <path id="パス_93" data-name="パス 93" d="M40.887,7.314h-1.9c-.729,0-1.167.46-1.167,1.381s.437,1.381,1.167,1.381H41.47c2.917,0,4.229.921,4.229,2.763v6.14c0,2-1.75,2.916-5.25,2.916H30.971c-4.083,0-6.125-1.074-6.125-3.07V6.086c0-2,2.333-2.916,7.146-2.916h2.625c.875,0,1.312-.46,1.312-1.535S35.491.1,34.616.1H30.825Q21.2.1,21.2,6.086V18.98c0,3.991,3.208,5.986,9.479,5.986H40.3q8.75,0,8.75-5.986v-6.6a1.21,1.21,0,0,0-.146-.614c-.292-3.07-3.062-4.451-8.021-4.451" transform="translate(9.716 0.054)"/>
    </g>
  </g>
</svg>
