<svg xmlns="http://www.w3.org/2000/svg" width="25.16" height="28.324" viewBox="0 0 25.16 28.324">
  <path id="Shape" d="M47.426,43.99V41.824a2.134,2.134,0,0,1,.081-.729,1.438,1.438,0,0,1,2.721,0,2.128,2.128,0,0,1,.081.729v3.34a2.756,2.756,0,0,1-.041.587,1.482,1.482,0,0,1-1.076,1.073,2.792,2.792,0,0,1-.589.04H45.253a2.147,2.147,0,0,1-.731-.081,1.431,1.431,0,0,1,0-2.713,2.147,2.147,0,0,1,.731-.081Zm11.94,15.144H41.395V43.353a.7.7,0,0,1,.213-.516l4.66-4.647a.707.707,0,0,1,.518-.212h12.58Zm2.041-24.721a3.816,3.816,0,0,0-.447-.02H46.309c-.162,0-.325.01-.436.02a2.834,2.834,0,0,0-1.746.85L38.674,40.7a2.819,2.819,0,0,0-.853,1.741c-.01.111-.02.273-.02.435V60.724a3.727,3.727,0,0,0,.02.445A1.806,1.806,0,0,0,39.354,62.7a3.765,3.765,0,0,0,.447.02h21.16a3.763,3.763,0,0,0,.447-.02,1.806,1.806,0,0,0,1.533-1.528,3.822,3.822,0,0,0,.02-.445V36.388a3.822,3.822,0,0,0-.02-.445A1.807,1.807,0,0,0,61.407,34.414Z" transform="translate(-37.801 -34.394)" fill-rule="evenodd"/>
</svg>
