<svg xmlns="http://www.w3.org/2000/svg" width="30.231" height="33.005" viewBox="0 0 30.231 33.005">
  <path id="Icon_awesome-search" data-name="Icon awesome-search" d="M29.82,28.535l-5.887-6.426a1.358,1.358,0,0,0-1-.451h-.963a14.137,14.137,0,0,0,2.6-8.25C24.565,6,19.067,0,12.282,0S0,6,0,13.407,5.5,26.814,12.282,26.814a11.587,11.587,0,0,0,7.558-2.836v1.051a1.621,1.621,0,0,0,.413,1.1l5.887,6.426a1.329,1.329,0,0,0,2,0l1.671-1.824a1.657,1.657,0,0,0,.006-2.191ZM12.282,21.657c-4.175,0-7.558-3.687-7.558-8.25s3.378-8.25,7.558-8.25,7.558,3.687,7.558,8.25S16.463,21.657,12.282,21.657Z"/>
</svg>
